<svg width="91" height="95" fill="none" xmlns="http://www.w3.org/2000/svg"><path fill-rule="evenodd" clip-rule="evenodd" d="M43.594.044c8.323.36 16.229 3.734 23.042 8.537 6.475 4.566 10.645 11.348 14.769 18.12 4.21 6.917 9.305 13.781 9.582 21.879.279 8.185-3.842 15.745-8.06 22.759-4.162 6.92-9.228 13.34-16.148 17.488-6.975 4.181-15.062 5.811-23.185 6.088-8.311.283-17.163.1-24.114-4.475-6.848-4.507-9.884-12.742-13.347-20.183C2.91 63.332.017 56.22 0 48.58c-.017-7.65 2.834-14.789 6.035-21.733 3.45-7.485 6.64-15.524 13.342-20.306C26.302 1.599 35.101-.323 43.594.044z" fill="#FFD56B"/></svg>